<svg viewBox="0 0 29 26" fill="none" xmlns="http://www.w3.org/2000/svg">
<g id="backArrow">
<path id="Vector" d="M2.75 11.75H27.75C28.0815 11.75 28.3995 11.8817 28.6339 12.1161C28.8683 12.3505 29 12.6685 29 13C29 13.3315 28.8683 13.6495 28.6339 13.8839C28.3995 14.1183 28.0815 14.25 27.75 14.25H2.75C2.41848 14.25 2.10054 14.1183 1.86612 13.8839C1.6317 13.6495 1.5 13.3315 1.5 13C1.5 12.6685 1.6317 12.3505 1.86612 12.1161C2.10054 11.8817 2.41848 11.75 2.75 11.75Z" fill="white"/>
<path id="Vector_2" d="M3.26754 13L13.635 23.365C13.8698 23.5997 14.0016 23.9181 14.0016 24.25C14.0016 24.5819 13.8698 24.9003 13.635 25.135C13.4003 25.3697 13.082 25.5016 12.75 25.5016C12.4181 25.5016 12.0998 25.3697 11.865 25.135L0.615037 13.885C0.498629 13.7689 0.406272 13.6309 0.343256 13.4791C0.28024 13.3272 0.247803 13.1644 0.247803 13C0.247803 12.8356 0.28024 12.6728 0.343256 12.5209C0.406272 12.369 0.498629 12.2311 0.615037 12.115L11.865 0.864992C12.0998 0.630275 12.4181 0.498413 12.75 0.498413C13.082 0.498413 13.4003 0.630275 13.635 0.864992C13.8698 1.09971 14.0016 1.41805 14.0016 1.74999C14.0016 2.08193 13.8698 2.40028 13.635 2.63499L3.26754 13Z" fill="white"/>
</g>
</svg>
