<svg viewBox="0 0 38 34" fill="none" xmlns="http://www.w3.org/2000/svg">
<g id="bin">
<path id="Vector" d="M32.75 8.25L30.5102 29.7922C30.4386 30.4004 30.1462 30.9612 29.6886 31.3682C29.2309 31.7752 28.6398 32 28.0273 32H9.97344C9.361 32 8.76988 31.7752 8.31222 31.3682C7.85456 30.9612 7.5622 30.4004 7.49063 29.7922L5.25 8.25" stroke="white" stroke-width="3" stroke-linecap="round" stroke-linejoin="round"/>
<path id="Vector_2" d="M35.25 2H2.75C2.05964 2 1.5 2.55964 1.5 3.25V7C1.5 7.69036 2.05964 8.25 2.75 8.25H35.25C35.9404 8.25 36.5 7.69036 36.5 7V3.25C36.5 2.55964 35.9404 2 35.25 2Z" stroke="white" stroke-width="3" stroke-linecap="round" stroke-linejoin="round"/>
<path id="Vector_3" d="M23.375 15.75L14.625 24.5" stroke="white" stroke-width="3" stroke-linecap="round" stroke-linejoin="round"/>
<path id="Vector_4" d="M23.375 24.5L14.625 15.75" stroke="white" stroke-width="3" stroke-linecap="round" stroke-linejoin="round"/>
</g>
</svg>
