<svg viewBox="0 0 40 40" fill="none" xmlns="http://www.w3.org/2000/svg">
<path d="M39.6481 20.8859C39.6569 20.8777 39.6569 20.8777 39.6657 20.8696C39.6921 20.8369 39.7184 20.8124 39.736 20.7797C39.7448 20.7716 39.7448 20.7634 39.7536 20.7553C39.7712 20.7226 39.7976 20.6899 39.8152 20.6573C39.8152 20.6491 39.824 20.6409 39.824 20.6409C39.8416 20.6083 39.8592 20.5756 39.8768 20.5348C39.8768 20.5266 39.8768 20.5266 39.8856 20.5185C39.9032 20.4858 39.912 20.445 39.9296 20.4042C39.9296 20.396 39.9296 20.3878 39.9384 20.3878C39.9472 20.347 39.9648 20.3143 39.9648 20.2735C39.9648 20.2572 39.9648 20.249 39.9736 20.2327C39.9824 20.2 39.9824 20.1674 39.9912 20.1347C40 20.0857 40 20.0449 40 19.9959C40 19.9469 40 19.9061 39.9912 19.8571C39.9912 19.8245 39.9824 19.7918 39.9736 19.7591C39.9736 19.7428 39.9736 19.7346 39.9648 19.7183C39.956 19.6775 39.9472 19.6448 39.9384 19.604C39.9384 19.5958 39.9384 19.5877 39.9296 19.5877C39.9208 19.5468 39.9032 19.5142 39.8856 19.4734C39.8856 19.4652 39.8856 19.4652 39.8768 19.457C39.8592 19.4244 39.8416 19.3835 39.824 19.3509C39.824 19.3427 39.8152 19.3346 39.8152 19.3346C39.7976 19.3019 39.78 19.2692 39.7536 19.2366C39.7448 19.2284 39.7448 19.2202 39.736 19.2121C39.7097 19.1794 39.6921 19.1468 39.6657 19.1223C39.6569 19.1141 39.6569 19.1141 39.6481 19.1059C39.6129 19.0733 39.5865 19.0325 39.5425 18.9998L30.8423 10.9328C30.2529 10.3858 29.294 10.3858 28.7046 10.9328C28.1152 11.4799 28.1152 12.3699 28.7046 12.9169L34.8273 18.5997H10.486C9.65027 18.5997 8.9729 19.2284 8.9729 19.9959C8.9729 20.7716 9.65027 21.4003 10.486 21.4003H34.8361L28.7574 27.0422C28.168 27.5893 28.168 28.4793 28.7574 29.0263C29.0477 29.2958 29.4347 29.4346 29.8218 29.4346C30.2089 29.4346 30.596 29.2958 30.8863 29.0263L39.5337 21.0002C39.5777 20.9512 39.6129 20.9186 39.6481 20.8859Z" fill="white"/>
<path d="M8.19002 2.80057H19.4502C20.2859 2.80057 20.9633 2.17187 20.9633 1.40437C20.9633 0.6287 20.2859 0 19.4502 0H8.19002C3.67715 0 0 3.41294 0 7.60155V32.3984C0 36.5871 3.67715 40 8.19002 40H19.2655C20.1012 40 20.7785 39.3713 20.7785 38.6038C20.7785 37.8281 20.1012 37.1994 19.2655 37.1994H8.19002C5.33978 37.1994 3.01737 35.0439 3.01737 32.3984V7.60155C3.02617 4.94795 5.33978 2.80057 8.19002 2.80057Z" fill="white"/>
</svg>
